<svg xmlns="http://www.w3.org/2000/svg" viewBox="0 0 483.63 416.31"><g id="freepik--background-simple--inject-264"><path d="M452.57,220.56S413.32,96.25,328,57.86c-75.3-33.89-159.58-19-194.81,58.71-12.56,27.7-28.88,57.59-48.44,80.35-21.94,25.51-51.37,43.29-52.27,105.16s53.73,135,105,150.77S251.5,437,304.41,407,496.25,376.4,452.57,220.56Z" transform="translate(-8.36 -40.75)" style="fill:#C60101"></path><path d="M452.57,220.56S413.32,96.25,328,57.86c-75.3-33.89-159.58-19-194.81,58.71-12.56,27.7-28.88,57.59-48.44,80.35-21.94,25.51-51.37,43.29-52.27,105.16s53.73,135,105,150.77S251.5,437,304.41,407,496.25,376.4,452.57,220.56Z" transform="translate(-8.36 -40.75)" style="fill:#fff;opacity:0.7000000000000001"></path></g><g id="freepik--floor-3--inject-264"><line x1="21.69" y1="170.75" x2="318.37" y2="170.75" style="fill:none;stroke:#263238;stroke-linecap:round;stroke-linejoin:round"></line></g><g id="freepik--floor-2--inject-264"><line x1="212.21" y1="328.93" x2="483.13" y2="328.93" style="fill:none;stroke:#263238;stroke-linecap:round;stroke-linejoin:round"></line></g><g id="freepik--floor-1--inject-264"><line x1="0.5" y1="403.42" x2="271.42" y2="403.42" style="fill:none;stroke:#263238;stroke-linecap:round;stroke-linejoin:round"></line></g><g id="freepik--Hurdle--inject-264"><rect x="313.72" y="324.68" width="84.99" height="4.24" style="fill:#C60101;stroke:#263238;stroke-linecap:round;stroke-linejoin:round"></rect><rect x="313.72" y="230.17" width="5.34" height="98.75" style="fill:#fff;stroke:#263238;stroke-linecap:round;stroke-linejoin:round"></rect></g><g id="freepik--character-1--inject-264"><path d="M213.43,306.69A27.82,27.82,0,0,0,219,316.85c4.4,5.25,8.63,11.68,8.63,11.68s15.07-5.93,17.95-6.94,14.9-6.6,14.9-6.6,1.18-7.45,2.71-7.45a45,45,0,0,0,5.92-1s4.07.34,5.08,1.18.85,2,.85,4.41-.51,6.77-1,7.28-6.77,2.37-8.29,2.87-3.9.68-4.41.85a68.19,68.19,0,0,0-11.51,8c-3.55,3.38-13.71,8.63-20.48,11.17s-8.64,2.88-9.48.68-5.08-6.77-5.08-6.77-10.84-10.5-13.21-13.89a50.16,50.16,0,0,1-4.4-8.46s5.76-8.8,8.13-11.85S213.43,306.69,213.43,306.69Z" transform="translate(-8.36 -40.75)" style="fill:#fff;stroke:#263238;stroke-linecap:round;stroke-linejoin:round"></path><polygon points="198.11 265.79 192.84 279.98 189.54 275.19 198.11 265.79" style="fill:#263238;stroke:#263238;stroke-linecap:round;stroke-linejoin:round"></polygon><path d="M265.58,309.23s-.51,5.08.34,5.25a2.79,2.79,0,0,0,2.54-1.36c.16-.67.67-6.6.67-6.6" transform="translate(-8.36 -40.75)" style="fill:none;stroke:#263238;stroke-linecap:round;stroke-linejoin:round"></path><polyline points="260.26 277.96 260.09 272.38 265.68 272.72" style="fill:none;stroke:#263238;stroke-linecap:round;stroke-linejoin:round"></polyline><line x1="260.43" y1="269.5" x2="265.17" y2="269.5" style="fill:none;stroke:#263238;stroke-linecap:round;stroke-linejoin:round"></line><line x1="260.43" y1="275.42" x2="265" y2="275.09" style="fill:none;stroke:#263238;stroke-linecap:round;stroke-linejoin:round"></line><path d="M266.59,315.66s-4.06,1.86-4.23,2.71l-.17.85" transform="translate(-8.36 -40.75)" style="fill:none;stroke:#263238;stroke-linecap:round;stroke-linejoin:round"></path><path d="M60.25,444.14s-5-1.5-5.67-14.54H65.41s-.21,11.66,6.06,14.54Z" transform="translate(-8.36 -40.75)" style="fill:#C60101;stroke:#263238;stroke-linecap:round;stroke-linejoin:round"></path><path d="M113.37,331.58s-4.06,15.4-5.75,22.85-2.88,20.66-3.73,23.2S90,384.74,85.27,391.68s-12.19,20.15-12.53,20.65-12.7,1-13.54,2.21,1.86,10.66,2.37,13.2A38.55,38.55,0,0,0,66,438.07c1.69,2.54,4.4,3.72,5.59,3.55s2.2,0,2.2-1.69-1.7-8.3-2-10.33.33-3.55,3.89-7.62a194.17,194.17,0,0,1,18.45-17.43c7.11-5.93,15.58-5.93,23.54-17.61s15.06-38.09,15.06-38.09Z" transform="translate(-8.36 -40.75)" style="fill:#fff;stroke:#263238;stroke-linecap:round;stroke-linejoin:round"></path><path d="M123.84,374.84a235.7,235.7,0,0,0,8.83-26l-19.3-17.27s-4.06,15.4-5.75,22.85c-.92,4.05-1.69,9.81-2.34,14.62A32.58,32.58,0,0,0,123.84,374.84Z" transform="translate(-8.36 -40.75)" style="fill:#263238;stroke:#263238;stroke-linecap:round;stroke-linejoin:round"></path><path d="M73.76,439.93c0-1.69-1.7-8.3-2-10.33-.27-1.61.1-2.9,2-5.39v0s1.69-4.07.34-4.58l-1.36-.5a9.55,9.55,0,0,1-1.69-5.25c0-.42,0-.81,0-1.18-3.5.42-11.15.93-11.81,1.86-.85,1.18,1.86,10.66,2.37,13.2A38.55,38.55,0,0,0,66,438.07c1.69,2.54,4.4,3.72,5.59,3.55S73.76,441.62,73.76,439.93Z" transform="translate(-8.36 -40.75)" style="fill:#C60101;stroke:#263238;stroke-linecap:round;stroke-linejoin:round"></path><path d="M201.07,282.14s-8.8-5.42-14.9-7.79-8.46-1-11.34-2.88-9.65-4.23-13-5.08-11.85-3.21-14.89-4.9-8.47,2.7-8.47,2.7l-24.89,24.38s-10.32,8-11.68,10.16,1.36,4.74,1.36,4.74-.17,2.71,1.18,3.39,3.89-.85,3.89-.85a1.07,1.07,0,0,0,1.36,1,8.77,8.77,0,0,0,5.08-3.56c1.69-2.2,1.69-9.48,1.69-9.48s15.24-10.16,19.13-10.83,12.53-4.74,12.53-4.74a78.77,78.77,0,0,0,9.65,4.57c3.22,1,7.28,2,7.28,2s-16.42,4.74-24.21,9.65-9.31,6.09-9.65,6.94-13.21,6.94-18.28,16.25,2,22.52,5.75,25.91,22.86,25.05,22.86,25.05a47.8,47.8,0,0,0-13.55,4.41c-7.78,3.72-20.82,10.32-24.55,12.19s-15.06,5.07-15.4,7.27S92.21,407.42,95.6,410s6.6,4.74,7.11,3.22-1-7.62-.51-11.34a76.2,76.2,0,0,1,1.52-7.62s24.55-4.4,35.9-7.28,21-5.59,25.39-10.33,3.73-4.91,3.05-9.31-22.35-32.85-22.35-32.85,4.57-6.77,6.43-8.63,15.24-4.06,17.61-4.06,20.66-2.71,23.7-3.22,13-9.14,15.75-16.08-1.86-13.72-3.73-16.43A12.34,12.34,0,0,0,201.07,282.14Z" transform="translate(-8.36 -40.75)" style="fill:#fff;stroke:#263238;stroke-linecap:round;stroke-linejoin:round"></path><path d="M165,285s3.05,6,9.07,7.59" transform="translate(-8.36 -40.75)" style="fill:none;stroke:#263238;stroke-linecap:round;stroke-linejoin:round"></path><path d="M145.71,334.45s2.92-4.32,5-7c-2.29-1.83-6.3-5.75-11.13-13.48a111.75,111.75,0,0,1-7.47-13.51,3.37,3.37,0,0,0-1,1.15c-.34.85-13.21,6.94-18.28,16.25s2,22.52,5.75,25.91c1.68,1.52,6.49,6.76,11.26,12.06,4.23-4.3,13.26-11.44,25-9.05C150,340.12,145.71,334.45,145.71,334.45Z" transform="translate(-8.36 -40.75)" style="fill:#263238;stroke:#263238;stroke-linecap:round;stroke-linejoin:round"></path><path d="M144,332.42s-6.94-10.16-12-12.53" transform="translate(-8.36 -40.75)" style="fill:none;stroke:#8a8a8a;stroke-linecap:round;stroke-linejoin:round"></path><path d="M149.32,375.44a12.87,12.87,0,0,0,2,1.34" transform="translate(-8.36 -40.75)" style="fill:none;stroke:#263238;stroke-linecap:round;stroke-linejoin:round"></path><path d="M141.48,368.82s2.57,2.3,5.13,4.44" transform="translate(-8.36 -40.75)" style="fill:none;stroke:#263238;stroke-linecap:round;stroke-linejoin:round"></path><path d="M103.72,394.22a23.88,23.88,0,0,0-2.54-.17,4,4,0,0,0-2.37,1.35s-1.18-2-2.54-4.06A10.65,10.65,0,0,1,95,388.68c-3.6,1.39-6.88,2.85-7.06,4-.34,2.21,4.23,14.73,7.62,17.27s6.6,4.74,7.11,3.22-1-7.62-.51-11.34A76.2,76.2,0,0,1,103.72,394.22Z" transform="translate(-8.36 -40.75)" style="fill:#C60101;stroke:#263238;stroke-linecap:round;stroke-linejoin:round"></path><path d="M201.07,282.14s-3.58-2.21-7.76-4.42c.05,3.12-.59,8.72-5.1,12.89-6.61,6.09-15.92,4.74-19.64,1S165,285,165,285s-16.42,4.74-24.21,9.65-9.31,6.09-9.65,6.94a3.43,3.43,0,0,1-1,.76c1.57,5.37,6.88,19.62,20.06,25.73a26.25,26.25,0,0,1,1.9-2.28c1.87-1.86,15.24-4.06,17.61-4.06s20.66-2.71,23.7-3.22,13-9.14,15.75-16.08-1.86-13.72-3.73-16.43A12.34,12.34,0,0,0,201.07,282.14Z" transform="translate(-8.36 -40.75)" style="fill:#C60101;stroke:#263238;stroke-linecap:round;stroke-linejoin:round"></path><path d="M167.59,317.28c1.06.06,2.11.09,3.14.09" transform="translate(-8.36 -40.75)" style="fill:none;stroke:#263238;stroke-linecap:round;stroke-linejoin:round"></path><path d="M141.26,312.22a128.43,128.43,0,0,0,22,4.7" transform="translate(-8.36 -40.75)" style="fill:none;stroke:#263238;stroke-linecap:round;stroke-linejoin:round"></path><path d="M137.25,304.78s3.72,5.43,16.6,8.29" transform="translate(-8.36 -40.75)" style="fill:none;stroke:#263238;stroke-linecap:round;stroke-linejoin:round"></path><polygon points="39.25 395.28 39.25 398.88 40.38 398.88 40.38 396.83 48.21 396.83 48.21 398.88 49.48 398.88 49.48 395.28 39.25 395.28" style="fill:#b0b0b0;stroke:#263238;stroke-linecap:round;stroke-linejoin:round"></polygon><rect x="18.5" y="399.02" width="61.29" height="4.4" style="fill:#b0b0b0;stroke:#263238;stroke-linecap:round;stroke-linejoin:round"></rect><path d="M38.79,444.14s-5-1.5-5.67-14.54H44s-.21,11.66,6,14.54Z" transform="translate(-8.36 -40.75)" style="fill:#C60101;stroke:#263238;stroke-linecap:round;stroke-linejoin:round"></path><path d="M48,440" transform="translate(-8.36 -40.75)" style="fill:#fff;stroke:#263238;stroke-linecap:round;stroke-linejoin:round"></path><path d="M236.46,304.83s-5.42,4.4-7.45,4.91-3.73-.68-4.91-.34-2.54,1.86-4.4,2.2-3-2.54-3-2.54-4.57,1.52-7.11,1-2.54-6.44-2.54-6.44-7.28,3.56-13,4.06-7.62-4.06-4.57-8.8,7.11-8.46,9-11.51a35.28,35.28,0,0,0,2.71-5.25s6.1,3.05,8,3.22,6.43-1.7,6.43-1.7,8-2.87,9.32-4.23,11.51,11.85,13.54,17.61S236.46,304.83,236.46,304.83Z" transform="translate(-8.36 -40.75)" style="fill:#fff;stroke:#263238;stroke-linecap:round;stroke-linejoin:round"></path><polygon points="198.64 262.9 199.79 256.6 192.14 263.53 198.64 262.9" style="fill:#263238;stroke:#263238;stroke-linecap:round;stroke-linejoin:round"></polygon><path d="M224.44,302.12c.5-.34,2.71.34,1.35,4.4" transform="translate(-8.36 -40.75)" style="fill:none;stroke:#263238;stroke-linecap:round;stroke-linejoin:round"></path><path d="M222,306.18c-.89,0-1.62-.47-1.63-1.07S221.08,304,222,304s1.62.47,1.63,1.08S222.89,306.17,222,306.18Z" transform="translate(-8.36 -40.75)" style="fill:#263238"></path><path d="M219.7,291.79s4.4-2,3.38-4.23-5.08-1.7-6.94.51l-1.86,2.2s-1.86-2.71-1.19-4.57,3.22-2.37,4.57-4.24,1.19-6.43,5.59-8.63,17.61.51,21.33,8.8,1.53,14.22,1,17.27-1.36,7.28-3,9a22,22,0,0,1-4.06,3.05l.34-5.92s-.34,4.23-2.71,5.41a9,9,0,0,1-3.39,1.19s3.9-2.88,2-5.76-2.7-3.72-3-5.92-.51-2.88-.51-2.88-3.05,1.69-4.4,0-.34-2.88-1.87-3.56a4.39,4.39,0,0,0-3.21-.5C220.2,293.14,219.19,293.65,219.7,291.79Z" transform="translate(-8.36 -40.75)" style="fill:#263238;stroke:#263238;stroke-linecap:round;stroke-linejoin:round"></path><rect x="18.5" y="401.12" width="23.82" height="2.3" style="fill:#b0b0b0;stroke:#263238;stroke-linecap:round;stroke-linejoin:round"></rect></g><g id="freepik--character-3--inject-264"><path d="M218.29,85.15a79.08,79.08,0,0,1,5.56,21.26c1.14,11.3,8.61,38.49,9.19,38.88s1.72,2.29,2.3,2.68a46.18,46.18,0,0,1,3.25,3.64c1.92,2.1,7.28,6.89,10.15,7.27s9,1.92,7.66,3.45-5.74,2.3-10.72,3.06-6.51-.19-9.77-.95a36.38,36.38,0,0,0-9-.77c-3.06,0-4.21-2.3-4.21-4.79s.76-11.68.76-11.68-5-14.17-8.81-20.68-5-2.68-8.61-13.21-3.83-23.37-3.83-23.37Z" transform="translate(-8.36 -40.75)" style="fill:#fff;stroke:#263238;stroke-linecap:round;stroke-linejoin:round"></path><path d="M234.38,149.5a22.08,22.08,0,0,1,.19,2.87,18.84,18.84,0,0,1-5.75-1c-1.88-.72-4.42-1.55-5.54-1.92-.23,2.9-.58,7.7-.58,9.39,0,2.49,1.15,4.79,4.21,4.79a36.38,36.38,0,0,1,9,.77c3.26.76,4.79,1.72,9.77.95s9.38-1.53,10.72-3.06-4.79-3.06-7.66-3.45-8.23-5.17-10.15-7.27a46.18,46.18,0,0,0-3.25-3.64A1.41,1.41,0,0,0,234.38,149.5Z" transform="translate(-8.36 -40.75)" style="fill:#263238;stroke:#263238;stroke-linecap:round;stroke-linejoin:round"></path><path d="M203.16,62.75s11.3-4.6,20.3-4.79,26.24-.57,28.73,2.87,2.68,6.9.76,11.11S242.42,97.79,237.44,107,226,128.43,225,131.5s-3.83,10.34-3.83,10.34-.57,2.3-3.06.57-5.55-5.17-5.17-7.47,4.4-10.14,4.4-10.14L225,94l2.49-11.49s-11.87,6.71-15.12,7.85-9.58,4-9.58,4a11.23,11.23,0,0,1-5.17-6.9c-1-4.59-1-16.47,1-20.11A9.52,9.52,0,0,1,203.16,62.75Z" transform="translate(-8.36 -40.75)" style="fill:#fff;stroke:#263238;stroke-linecap:round;stroke-linejoin:round"></path><path d="M219.44,116.32l-2.11,8.48s-4,7.85-4.4,10.14,2.68,5.75,5.17,7.47,3.06-.57,3.06-.57S224,134.56,225,131.5a96.44,96.44,0,0,1,4.62-9.76A34.1,34.1,0,0,1,219.44,116.32Z" transform="translate(-8.36 -40.75)" style="fill:#fff;stroke:#263238;stroke-linecap:round;stroke-linejoin:round"></path><path d="M224.23,140.69s-.19-3.64-1.53-2.68-2.49,1.72-2.49,1.72-3.64-2.49-4.6-4a27.3,27.3,0,0,0-2.11-2.87s-8.8,5.36-10.72,7.47-.38,3.64,1,5.17,5.74,8.81,11.68,13.4,11.3,8.81,12.06,7.66,1.54-1.15-.57-5.36S222.5,151,222.7,149.31,224.23,140.69,224.23,140.69Z" transform="translate(-8.36 -40.75)" style="fill:#263238;stroke:#263238;stroke-linecap:round;stroke-linejoin:round"></path><path d="M242.35,74.15A28,28,0,0,0,247,70.6" transform="translate(-8.36 -40.75)" style="fill:none;stroke:#263238;stroke-linecap:round;stroke-linejoin:round"></path><path d="M227.48,82.47s5.29-2.64,10.48-5.65" transform="translate(-8.36 -40.75)" style="fill:none;stroke:#263238;stroke-linecap:round;stroke-linejoin:round"></path><rect x="44.25" y="72.32" width="251.28" height="4.7" style="fill:#C60101;stroke:#263238;stroke-linecap:round;stroke-linejoin:round"></rect><polyline points="50.91 170.17 50.91 48.84 41.9 48.84 41.9 170.17" style="fill:#fff;stroke:#263238;stroke-linecap:round;stroke-linejoin:round"></polyline><polyline points="299.45 170.17 299.45 48.84 290.45 48.84 290.45 170.17" style="fill:#fff;stroke:#263238;stroke-linecap:round;stroke-linejoin:round"></polyline><path d="M169.08,105.45s7.66,1.54,10.72,2.3,4.79-2.11,7.47-2.68,13-6.32,13-6.32,5.94-2.68,7.47-4.6,2.68-4.4,1.72-7.27a12.68,12.68,0,0,0-2.68-4.6l-3.83.77,3.64-3.64a8.65,8.65,0,0,0,2.49-7.28c-.57-4.59-4.21-8.62-8.23-11.3s-11.88-.95-13.41-1.34-4.79-3.44-10-4.21-10.34,0-12.45,1.15-3.83,4-8.42,5.94-6.13,2.48-7.09,4.4-2.49,4.79-2.49,4.79,11.3-1.34,19.73,4.79,10.15,15.89,8.81,19-7.85,7.86-7.85,9S169.08,105.45,169.08,105.45Z" transform="translate(-8.36 -40.75)" style="fill:#263238;stroke:#263238;stroke-linecap:round;stroke-linejoin:round"></path><path d="M115.65,129a20.15,20.15,0,0,1,4-.58c.57.2,11.3,5.56,11.87,5.94s4.41,6.7,9.77,10.92,19,13,23.55,14.74,11.49,7.66,14.37,6.9,6.12-3.64,6.89-6.71,9-36,9-36,3.64-7.66,4.4-9,.77-4.4.77-4.4,2.68-3.64,2.49-4.79-7.47-4.79-8.23-5.56-2.49-1.91-3.64-.57-4.41,3.45-3.64,5.17,2.3,13.21,2.3,13.21l-14.75,31.6s-7.08-7.66-11.49-12.25a91.13,91.13,0,0,0-10.53-9.2c-.58-.38,7.66-6.51,11.49-12.06A88.21,88.21,0,0,0,171,104.5a11.36,11.36,0,0,0,5.55-2.3c2.11-1.92,5.75-5,4.22-13.41S178.65,77.3,167,72.13s-19.73-2.87-21.83-1.34-11.88,6.13-11.88,6.13-19.34,11.3-22.4,14.36-2.3,2.68-2.3,2.68-6.32-1.91-10.53.77-5.75,8.81-3.64,13.21,12.06,8.62,12.06,8.62l5.75,9.38Z" transform="translate(-8.36 -40.75)" style="fill:#fff;stroke:#263238;stroke-linecap:round;stroke-linejoin:round"></path><line x1="186.18" y1="59.73" x2="181.97" y2="64.9" style="fill:none;stroke:#263238;stroke-linecap:round;stroke-linejoin:round"></line><line x1="188.86" y1="62.22" x2="185.23" y2="66.81" style="fill:none;stroke:#263238;stroke-linecap:round;stroke-linejoin:round"></line><line x1="192.31" y1="63.75" x2="188.1" y2="69.3" style="fill:none;stroke:#263238;stroke-linecap:round;stroke-linejoin:round"></line><path d="M127.9,113.31a40.33,40.33,0,0,0-4.59,10c-1.54,5.37-3.64,5.17-3.64,5.17.28.1,3,1.44,5.77,2.82a.45.45,0,0,0,.16-.14c.39-.57,1-4.59,1.92-6.89s5.36-9.77,12.64-12.83,11.49,1.34,13.79,7.28-.19,8.42-.19,8.42l.16,0c2.31-2.18,7.54-6.6,10.37-10.7A88.21,88.21,0,0,0,171,104.5a11.36,11.36,0,0,0,5.55-2.3c2.11-1.92,5.75-5,4.22-13.41S178.65,77.3,167,72.13s-19.73-2.87-21.83-1.34-11.88,6.13-11.88,6.13-19.34,11.3-22.4,14.36c-1.23,1.23-1.83,1.9-2.13,2.26l-.17.42-5,12.45,6.32-.77s2.3-6.89,8-10,10.73-.58,14.94,5.74S127.9,113.31,127.9,113.31Z" transform="translate(-8.36 -40.75)" style="fill:#C60101;stroke:#263238;stroke-linecap:round;stroke-linejoin:round"></path><path d="M107.22,103.92s-6.7,1.92-8.23,3.07-12.84,8-12.84,8a14.48,14.48,0,0,0,0,11.49c2.69,6.13,9.77,9.77,12.84,9.77s7.08-1.92,7.08-1.92l1.53-1a4,4,0,0,0,4.41,0c2.3-1.53,3.64-2.87,3.64-4.4v-2.49a23.73,23.73,0,0,0,5.93-8.62c2.11-5.36.19-13-1.53-14S107.22,103.92,107.22,103.92Z" transform="translate(-8.36 -40.75)" style="fill:#fff;stroke:#263238;stroke-linecap:round;stroke-linejoin:round"></path><path d="M100.71,113.88s7.85-5.94,8.43-5.55,1.72,3.06,1.72,3.06" transform="translate(-8.36 -40.75)" style="fill:none;stroke:#263238;stroke-linecap:round;stroke-linejoin:round"></path><path d="M111.82,106.6s3.06,2.49,3.44,4" transform="translate(-8.36 -40.75)" style="fill:none;stroke:#263238;stroke-linecap:round;stroke-linejoin:round"></path><path d="M102.43,117.33a12,12,0,0,0,2.68,5.74" transform="translate(-8.36 -40.75)" style="fill:none;stroke:#263238;stroke-linecap:round;stroke-linejoin:round"></path><path d="M99.18,112.92A8.9,8.9,0,0,1,96.11,111" transform="translate(-8.36 -40.75)" style="fill:none;stroke:#263238;stroke-linecap:round;stroke-linejoin:round"></path><path d="M106.17,118.29c-.71.77-.88,1.77-.38,2.22s1.47.19,2.18-.58.87-1.77.37-2.22S106.87,117.51,106.17,118.29Z" transform="translate(-8.36 -40.75)" style="fill:#263238"></path><path d="M100.38,109.23c-.7.77-.87,1.77-.37,2.22s1.47.19,2.17-.58.88-1.77.38-2.22S101.09,108.45,100.38,109.23Z" transform="translate(-8.36 -40.75)" style="fill:#263238"></path><path d="M89,116.37a4.91,4.91,0,0,0-5-3.64c-4,.19-8.43,6.32-7.66,9.38s1.53,3.45,2.1,6.9,3.26,7.66,7.09,9.19,7.09,3.45,11.49,1.92,5.36-1.73,7.28-3.26,4.59-.38,3.25-3.45-1.34-3.44-3.64-2.87-5,1.92-6.51-1.34.77-3.64-.57-7.09S91.9,117.71,89,116.37Z" transform="translate(-8.36 -40.75)" style="fill:#263238;stroke:#263238;stroke-linecap:round;stroke-linejoin:round"></path><path d="M126.56,84.77s18.58,2.11,23.17,17l13-13s-5-8.42-9.77-10.72a55.66,55.66,0,0,0-9.38-3.45Z" transform="translate(-8.36 -40.75)" style="fill:#fff;stroke:#263238;stroke-linecap:round;stroke-linejoin:round"></path><line x1="144.44" y1="87.69" x2="141.95" y2="79.84" style="fill:none;stroke:#263238;stroke-linecap:round;stroke-linejoin:round"></line></g><g id="freepik--character-2--inject-264"><path d="M351,177.56s-14.6,5.17-17.49,6.24-13.08,2.74-16.58,4.56a17.77,17.77,0,0,0-5.17,4.11c-.46.3,12.92,2.89,16.12,1.52s37.88-4,37.88-4,.6-9.43-2.44-11.71S351,177.56,351,177.56Z" transform="translate(-8.36 -40.75)" style="fill:#b0b0b0;stroke:#263238;stroke-linecap:round;stroke-linejoin:round"></path><path d="M351.12,142.23s-7.14,5.15-7.93,7.93.19,8.52-.4,9.31-5.15,5.36-4.56,6.15A25.07,25.07,0,0,0,342,168.4s2.18,9.71,4,10.7,8.53-1,8.53-1l1.58-.2s3.57,8.33,4.17,12.49,4.16,21.61,6.54,23.2,9.32,4.16,9.32,4.16l5.55,11.3s-18.27-.47-26.8,2.11-25.74,9.81-28.52,10.6-8.72,4.76-15.07,7.33-25.77,8.53-27.16,8.53h-2.77s-7.14-6.54-9.52-11.1-4.16-8.73-5.55-6.15-.2,11.9,2.18,16.06,5.75,10.9,6.94,11.1,10.7-3,10.7-3,20.62-3,27.76-3.17,16.65-5.75,16.65-5.75,5.75-3.18,6.74-3.77,33.12-2.4,39.46-1.21,10.71,2.18,10.71,2.18-1.19,23.6,7.14,32.92,11.49,6.74,12.09,6.74,31.13-5,33.31-5.75,9.91-.2,9.91-.2,5.75,2.38,6.94,3,6.54,4.76,6.54,4.76,2.78,7.93,4.56,7.14,2.18-3.17,1.79-6.54-3.18-9.32-3.18-9.32,1-6.55-2.18-7.34-5.94,1.39-8.92,1.79a26.16,26.16,0,0,1-12.29-.4c-6.34-1.59-16.65-3.57-22-3.57s-13.48,2.38-13.48,2.38,1-17.05,1.19-17.65,1.39-6.93,1.39-6.93a14.33,14.33,0,0,0,5.15-12.1c-.39-8.13-2.77-10.9-5.55-14.47s-7.33-11.5-11.3-18.44-3.37-13.88-10.71-24-20.61-12.49-20.61-12.49l-.4-2.18s6.15-7.14,6.94-12.09-.2-8.13-6.54-14.08S351.12,142.23,351.12,142.23Z" transform="translate(-8.36 -40.75)" style="fill:#b0b0b0;stroke:#263238;stroke-linecap:round;stroke-linejoin:round"></path><path d="M408.78,261a1.43,1.43,0,0,1,0-.21c.2-.59,1.39-6.93,1.39-6.93a14.33,14.33,0,0,0,5.15-12.1c-.39-8.13-2.77-10.9-5.55-14.47l-.33-.44c-2.57,2.16-9.57,4.91-28.25,1.36l.43.86s-.67,0-1.79,0c2.94,2,6.82,5.85,6.93,11.94a17.47,17.47,0,0,1-3.32,11c2.46.51,3.93.84,3.93.84s-.12,2.38,0,5.91A35.12,35.12,0,0,0,408.78,261Z" transform="translate(-8.36 -40.75)" style="fill:#263238;stroke:#263238;stroke-linecap:round;stroke-linejoin:round"></path><path d="M389.47,253.35s7.51,3,13.59,2.14" transform="translate(-8.36 -40.75)" style="fill:none;stroke:#8a8a8a;stroke-linecap:round;stroke-linejoin:round"></path><ellipse cx="338.65" cy="119.18" rx="1.05" ry="1.84" style="fill:#263238"></ellipse><path d="M345,156.9s1.39-1.79,3.57,0" transform="translate(-8.36 -40.75)" style="fill:none;stroke:#263238;stroke-linecap:round;stroke-linejoin:round"></path><path d="M371.93,141.23a29.42,29.42,0,0,1,8.73-7.73c5.55-3.17,9.91-2.77,10.31-.59s-2.58,2.18-6,3.76-9.32,5.16-9.32,5.16,12.29-2.38,16.65-2,4.37,5.75,3.77,7.33-3.77-1.78-7.93-2-7.93,0-7.93,0,6.54,1.39,8.33,4.16,6.74,4.56,6.14,6.35.2,2.77-3.17,2.77a15.78,15.78,0,0,1-6.94-2.18s6.15,3,4.56,4.56-3,3.57-4.16,2.38-5.35-8.33-5.35-8.33a35.68,35.68,0,0,1,2.38,7.54c.79,4.16-4.17,1.78-5.36-2.58s-3.37-12.09-3.37-12.09Z" transform="translate(-8.36 -40.75)" style="fill:#263238;stroke:#263238;stroke-linecap:round;stroke-linejoin:round"></path><path d="M347.55,145.2s5.55-3.57,8.13-.6-4.76,4-3.18,6.94,5.56,3,6.15,4.37.6,5,.6,5,1.58-4.36,4.36-1.19,1.38,7.54.2,8.13L361.43,169a50.26,50.26,0,0,0,5.35,1.19s6.15-7.14,6.94-12.09-.2-8.13-6.54-14.08-16.06-1.78-16.06-1.78-1.78,1.28-3.66,2.91Z" transform="translate(-8.36 -40.75)" style="fill:#263238;stroke:#263238;stroke-linecap:round;stroke-linejoin:round"></path><path d="M345,169.89a7,7,0,0,0,3.94-1.63" transform="translate(-8.36 -40.75)" style="fill:none;stroke:#263238;stroke-linecap:round;stroke-linejoin:round"></path><path d="M364.6,142.23s.39-2.58,2-2.58,9.12,2.58,9.32,7.14-2,5.74-2,5.74S368,143.61,364.6,142.23Z" transform="translate(-8.36 -40.75)" style="fill:#fff;stroke:#263238;stroke-linecap:round;stroke-linejoin:round"></path><path d="M411.21,229.11c-.45-.61-.92-1.21-1.41-1.83-2.77-3.57-7.33-11.5-11.3-18.44s-3.37-13.88-10.71-24c-3.91-5.4-9.53-8.59-13.91-10.4a30.71,30.71,0,0,1-1.75,3.46c-3,5.36-3.37,14.67-4.16,19s-2.18,7.53-5.16,5.55l-.1-.07c1.29,5.27,2.84,10.35,4.07,11.17,2.38,1.59,9.32,4.16,9.32,4.16l5.55,11.3,13.68,2.38C399.33,232.14,408.06,232.83,411.21,229.11Z" transform="translate(-8.36 -40.75)" style="fill:#C60101;stroke:#263238;stroke-linecap:round;stroke-linejoin:round"></path><path d="M381.73,227.61s8.52-2.29,14.14-1.83" transform="translate(-8.36 -40.75)" style="fill:none;stroke:#263238;stroke-linecap:round;stroke-linejoin:round"></path><path d="M383.1,224.72s9.43-4.42,14.45-3.81" transform="translate(-8.36 -40.75)" style="fill:none;stroke:#263238;stroke-linecap:round;stroke-linejoin:round"></path><path d="M382.44,179.5s-6.94,3.37-7.33,7.73,2.77,12.49,8.32,14.47,6.35,1.59,8.13.4,4.76-5,4.76-5a30.78,30.78,0,0,0,8.72.4c3.57-.59,14.87-2.18,14.87-2.18s9.92,2.18,13.29,2.18,16.45-2.38,17.64-2.38,13.88,1,13.88,1l6.94,4a6.31,6.31,0,0,1,3.17-.2c1.39.4,2.78,3.17,3.57,2.38s.79-.79.4-2a4,4,0,0,0-2.78-2.58c-1.19-.2-1.39-1.79-1.39-1.79s7.69,1.74,8.19,1.49.84-.67.75-.92-6.75-2.22-6.75-2.22l.33-1,8.38,1.67s.71-1.06.29-1.23-8.5-2.37-8.5-2.37l.25-1,7.55.81s.71-.69.29-.94-7.17-1.63-7.17-1.63,5.92.79,6,.54-.25-.75-.25-.75c-3.85.88-4.64-.66-7.65-.66a20.28,20.28,0,0,0-8.12,1.42c-2.18.67-4.36,1.26-4.69,1.43a191.49,191.49,0,0,1-22.1-3.27c-8.38-1.84-16.92-4.1-20.77-3.77s-14.81.67-14.81.67-6-1.5-10.3-2.76S386.5,178,382.44,179.5Z" transform="translate(-8.36 -40.75)" style="fill:#b0b0b0;stroke:#263238;stroke-linecap:round;stroke-linejoin:round"></path><path d="M396.32,197.14s-10.25,2.58-10.78,2.79" transform="translate(-8.36 -40.75)" style="fill:none;stroke:#263238;stroke-linecap:round;stroke-linejoin:round"></path><path d="M345.83,186.38s2.28-2.58,3.65-4.41,3.65-5,3.65-5l1.36,1.16s-2.58,4-3,4.62l-.46.61s1.83-.15,2.43-.91,3.05-4.87,3.81-6.24,2.13-1.06,2.13-.45-4.26,8.36-4.26,8.36a51.84,51.84,0,0,0,4.86-5c1.37-1.82,2.59-2.58,3-2s.3.76-1.07,3.35-5,5.48-5,5.48,5.78-3.5,6.7-4.26,1.36,0,.45,1.37-5.32,5-5.32,5l-2.13,1.82a19.12,19.12,0,0,0,1.82.61c1.07.3,2.59-.3,4-.3s3.19,0,2,1.21-2.13,2-3.65,2a37.53,37.53,0,0,0-4.11,0c-1.37.15-3.2.91-5.33.91s-6.84-1.82-6.84-1.82-21.9,9-25.25,10.19-10-.61-11.87-1.37a4,4,0,0,1-2.43-4.11c.3-1.21,4.87-7.3,10-8.52s19.47-2.12,22.36-1.82A50,50,0,0,0,345.83,186.38Z" transform="translate(-8.36 -40.75)" style="fill:#b0b0b0;stroke:#263238;stroke-linecap:round;stroke-linejoin:round"></path><path d="M346.44,191a4.09,4.09,0,0,0,2.58,0c1.52-.46,3.35-2.74,3.35-2.74" transform="translate(-8.36 -40.75)" style="fill:none;stroke:#263238;stroke-linecap:round;stroke-linejoin:round"></path><path d="M271.81,246.53c-2.38-4.56-4.16-8.73-5.55-6.15s-.2,11.9,2.18,16.06,5.75,10.9,6.94,11.1c.75.13,4.79-1.08,7.69-2l-3.82-5.6,2.08-2.31S274.19,251.09,271.81,246.53Z" transform="translate(-8.36 -40.75)" style="fill:#C60101;stroke:#263238;stroke-linecap:round;stroke-linejoin:round"></path><path d="M469.68,294.89c-.4-3.37-3.18-9.32-3.18-9.32s1-6.55-2.18-7.34c-2-.51-3.9.21-5.76.89a60.17,60.17,0,0,1,3,5.53l1.16,2.61s-2.61-.58-3.48,1.74a10.77,10.77,0,0,0-.44,1.85c2,1.43,4.56,3.44,4.56,3.44s2.78,7.93,4.56,7.14S470.07,298.26,469.68,294.89Z" transform="translate(-8.36 -40.75)" style="fill:#C60101;stroke:#263238;stroke-linecap:round;stroke-linejoin:round"></path></g></svg>