<svg xmlns="http://www.w3.org/2000/svg" viewBox="0 0 460.43 466.02"><g id="freepik--background-simple--inject-361"><path d="M413.53,111.48S328.9,44.7,226.41,38.75,77,74.46,77,113.47s23.14,33.06-13.89,105.79S.28,317.78,43.26,373.32s123,105.79,208.27,103.14,101.17-60.17,89.27-91.24,52.23,4,89.92-48.93S492.87,208,464.44,165.7,413.53,111.48,413.53,111.48Z" transform="translate(-20.2 -10.54)" style="fill:#F4C300"></path><path d="M413.53,111.48S328.9,44.7,226.41,38.75,77,74.46,77,113.47s23.14,33.06-13.89,105.79S.28,317.78,43.26,373.32s123,105.79,208.27,103.14,101.17-60.17,89.27-91.24,52.23,4,89.92-48.93S492.87,208,464.44,165.7,413.53,111.48,413.53,111.48Z" transform="translate(-20.2 -10.54)" style="fill:#fff;opacity:0.7000000000000001"></path></g><g id="freepik--shadow-2--inject-361"><ellipse cx="367.93" cy="445.46" rx="71.28" ry="10.42" style="fill:#263238"></ellipse></g><g id="freepik--shadow-1--inject-361"><ellipse cx="141.64" cy="443.22" rx="118.63" ry="12.65" style="fill:#263238"></ellipse></g><g id="freepik--character-3--inject-361"><path d="M331.34,324.49s6.53,23.6,13.8,34.31,15.31,22.71,20.23,29.58,14,23.69,18.33,30.54,5.84,9.82,5.84,9.82a20,20,0,0,0,3.07,6.37,13.45,13.45,0,0,1,3,8.46c.08,3.12-1.21,3.9-1.27,5.36s2.85,1.78,4.32,1.43,4-.67,4.74-3.77.36-8.94.36-8.94,5-4.79,3.68-8.39-5.58-1.06-8.11-5.33-6.29-14.21-8.48-21.8-5.33-22.3-9.32-26.42a28.68,28.68,0,0,1-6.68-9.86c-1.53-3.39-2.49-10.3-2.49-10.3s.47-6.44-3.89-21.83-14.62-14.34-24.4-14.54S332.23,318.07,331.34,324.49Z" transform="translate(-20.2 -10.54)" style="fill:#fff;stroke:#263238;stroke-linejoin:round"></path><path d="M398.65,450.36c1.47-.36,4-.67,4.74-3.77s.36-8.94.36-8.94,5-4.79,3.68-8.39a3,3,0,0,0-1.68-1.84c-.05.58-.12,1.36-.21,2.39-.38,4.15-4.31,8.36-3.18,11.33s-2.07,4.7-2.07,4.7l-2.89-.53a5.2,5.2,0,0,0-1.92-.08c-.3,1.8-1.1,2.55-1.15,3.7C394.27,450.39,397.18,450.71,398.65,450.36Z" transform="translate(-20.2 -10.54)" style="fill:#263238;stroke:#263238;stroke-linejoin:round"></path><path d="M356.71,325.53s-5.82,30.17-7.8,42.8-1.35,17.65-1.22,19.53-2,14.08-2.52,20.72-1.41,8.9-1.45,15.15-3,18-3.34,20.27a29.76,29.76,0,0,0-.25,6c.11,2.51-1.52,11.81-.81,14.76s4.49,2.26,6.15,2.33,6.23.47,7.34-1.15.17-4.16-1.11-8.38-3.54-10.14-3.56-14.73,10.46-16.44,13.45-28.4-.49-18.35,1.2-29.11,8.52-19.64,13.27-33.82,6.49-21.18,5.13-28.53-3-8.87-3-8.87Z" transform="translate(-20.2 -10.54)" style="fill:#fff;stroke:#263238;stroke-linejoin:round"></path><path d="M352.81,466c.92-1.36.42-3.36-.52-6.43-6.68-2.67-11.39-.91-13-.11a20.68,20.68,0,0,0,0,5.36c.71,2.94,4.49,2.26,6.15,2.33S351.7,467.59,352.81,466Z" transform="translate(-20.2 -10.54)" style="fill:#263238;stroke:#263238;stroke-linejoin:round"></path><path d="M344.45,212.52l1.33,12.93a23.67,23.67,0,0,0-4.11-5.75A60.12,60.12,0,0,1,333.8,211c-1.9-2.87-4.48-26.87-4.48-26.87s10.66-6.39,14.36-9.5a123.79,123.79,0,0,1,10.7-7.47s6.64.74,7.28.45a17.93,17.93,0,0,0,1.58-.86s3.67,1.39,5.23,1.14a13,13,0,0,0,3.62-1.24c1-.44,3.06.42,3.89-.15s1.62-1.64-.53-2.2a40.39,40.39,0,0,0-6.18-.72l.83-4.93a9.77,9.77,0,0,1,3.07.75c.6.49,2.46,4.29,3.42,3.55s.56-2.3-1.06-4.39-8.57-3-10.12-3.05-7.21,1.88-9.44,3.18-13,6.76-13,6.76-21.78,8.88-24,9.87-3.34,1.88-3.42,3.9,2.67,25.56,5.23,35,9.43,23.51,10.74,25.58a12.86,12.86,0,0,1,2,4.27c0,.47-.25,2.32-2.53,8.75s-4.43,20.92-3.11,26.4S331,291.1,331,293.12s-4.14,32.73-4.14,32.73,15.76,5.46,25.91,4,20.78-7.21,24.08-8.32,6-1.77,6-1.77-.3-.16-5.52-9.07S363.82,296,363.66,292.29s2.27-17.44,3-20.82,11.14-14.13,12.72-15,4.13-2.15,4.13-2.15l27.15,3.75a141.67,141.67,0,0,0,14.37,5.25c5.07,1.29,20.39,6.27,21.46,6.62s7.09,4.95,7.09,4.95a13.73,13.73,0,0,0,1.66,4.88c1.17,1.6,4.13,5.13,4.09,6.22s-1.37,3.05.22,2.18,2.82-.66,2.42-2.38-1.42-3-1-4.7,3.89-4,5.14-4.29,9.8-.53,11.69-1.38,3.21-2.51,1.65-2.26-4.54.9-4.54.9-2-.39-4.31-.8-2.49.21-7.67-2.18a111.44,111.44,0,0,1-11.09-5.73c-4.1-2.34-26.42-14.28-31.3-16.34s-10.11-3-15.34-4.2a64.36,64.36,0,0,1-13.92-4.92c-2-1.16-5.68-5.2-10.43-6.63s-9.43-.86-12.37-1.13-2.45-.88-5.31-3-1.94-9.39-1.94-9.39,1.47,5.8-7.25-1.08S344.45,212.52,344.45,212.52Z" transform="translate(-20.2 -10.54)" style="fill:#fff;stroke:#263238;stroke-linejoin:round"></path><path d="M385,245.09s-7.45,2.26-11.34,6.15" transform="translate(-20.2 -10.54)" style="fill:none;stroke:#263238;stroke-linejoin:round"></path><path d="M383.54,254.32s-2.09-.49-6-1.79" transform="translate(-20.2 -10.54)" style="fill:none;stroke:#263238;stroke-linejoin:round"></path><path d="M356,234.25s6.46,1.2,6.94,1.06,2.39-1.61,4.11-2" transform="translate(-20.2 -10.54)" style="fill:none;stroke:#263238;stroke-linejoin:round"></path><path d="M360.08,224.8s-4.66,7.57-6,9.37" transform="translate(-20.2 -10.54)" style="fill:none;stroke:#263238;stroke-linejoin:round"></path><line x1="325.58" y1="214.91" x2="326.51" y2="222.24" style="fill:none;stroke:#263238;stroke-linejoin:round"></line><path d="M377.34,310.7c-5.22-8.9-13.52-14.68-13.68-18.41s2.27-17.44,3-20.82c.44-2,4.11-6.39,7.42-9.93-1.29-4.55-5.29-13.53-14.28-15.65-12-2.82-14.76-7-15.79-12.28s1.74-8.16,1.74-8.16a23.67,23.67,0,0,0-4.11-5.75A60.12,60.12,0,0,1,333.8,211c-1.9-2.87-4.48-26.87-4.48-26.87s3.6-2.16,7.34-4.58a10.9,10.9,0,0,1-3.49-10.1c-6.1,2.5-13,5.34-14.19,5.87-2.22,1-3.34,1.88-3.42,3.9s2.67,25.56,5.23,35,9.43,23.51,10.74,25.58a12.86,12.86,0,0,1,2,4.27c0,.47-.25,2.32-2.53,8.75s-4.43,20.92-3.11,26.4S331,291.1,331,293.12s-4.14,32.73-4.14,32.73,15.76,5.46,25.91,4,20.78-7.21,24.08-8.32,6-1.77,6-1.77S382.56,319.61,377.34,310.7Z" transform="translate(-20.2 -10.54)" style="fill:#263238;stroke:#263238;stroke-linejoin:round"></path><path d="M335.34,240.59s1.33-12-1-20.45" transform="translate(-20.2 -10.54)" style="fill:none;stroke:#263238;stroke-linejoin:round"></path><path d="M451.22,265c-5.31-3-26-14-30.69-16-4.88-2.06-10.11-3-15.34-4.2a71.63,71.63,0,0,1-10.09-3.17,13.47,13.47,0,0,0-5,8.45c-.39,1.92-.67,3.57-.87,5l21.49,3a141.67,141.67,0,0,0,14.37,5.25c5.07,1.29,20.39,6.27,21.46,6.62a7.45,7.45,0,0,1,1.22.71A16,16,0,0,1,451.22,265Z" transform="translate(-20.2 -10.54)" style="fill:#263238;stroke:#263238;stroke-linejoin:round"></path><path d="M371.68,156.35a36.74,36.74,0,0,1-.39,7.15c-.55,2.15-1.54,3.51-2,2.56s-.05-2.33,0-4-.44-4.51-.42-5S368.36,155.25,371.68,156.35Z" transform="translate(-20.2 -10.54)" style="fill:#fff;stroke:#263238;stroke-linejoin:round"></path><path d="M369.37,155.87a2.13,2.13,0,0,1,.59,1.32,71.26,71.26,0,0,1-1,7.51c-.22.77-.5,1.15-1.07,1s-.43-.6-.63-2-.16-5.56-.5-6.61-.85-1.33-.06-1.68A2.24,2.24,0,0,1,369.37,155.87Z" transform="translate(-20.2 -10.54)" style="fill:#fff;stroke:#263238;stroke-linejoin:round"></path><path d="M362.49,156.56s2.24-.78,2.92-1.06,1.77,1.9,1.8,2.61a57.93,57.93,0,0,1-1,6.48.8.8,0,0,1-1.23.27c-.57-.47-.76-5.07-.76-5.07l-1.36.08" transform="translate(-20.2 -10.54)" style="fill:#fff;stroke:#263238;stroke-linejoin:round"></path><polygon points="352.72 150.67 422.73 178.45 421.78 179.9 352.35 152.58 352.72 150.67" style="fill:#fff;stroke:#263238;stroke-linejoin:round"></polygon><path d="M441.81,194.33c0,.26,0,.38,0,0,0,.12,0,.25,0,.38v.24c0,.55,0-.46,0-.18,0,.87,0-.58,0,0,0-.61.05-1.3.08-1.85,0,.24.05-1.07,0-.34.06-1.11,0-.32,0-.08,0,.43,0-.53,0,.09,0,.22,0,.45,0,.67-.26,4.37-.7,9.06-1.26,13.52a183.63,183.63,0,0,1-8.81,38.73,109.34,109.34,0,0,1-9,19.52c-4.38,7.33-10,13.87-15.86,20.05-10.18,10.76-22,20.68-35.43,27.08a44.08,44.08,0,0,1-12.55,4.19,13,13,0,0,1-7.26-.74,5.53,5.53,0,0,1-3.27-4.54c0-.12,0-.25,0-.37-.07-.75-.34,7.4-.29,7.07,0-.08,0-.17,0-.25.05-.34.1-.67.17-1a14.62,14.62,0,0,1,.69-2.25,29.42,29.42,0,0,1,2.88-5.36,90.67,90.67,0,0,1,13.13-15c6.21-5.95,12.83-11.47,19.51-16.89a342,342,0,0,1,38.71-27.77,128.26,128.26,0,0,1,18-9.27c4.62-1.86,9.63-3.51,14.66-3.48,3.68,0,7.31,1.21,9.52,4.29s2.65,7.32,2.7,11.15c0,1.39.41-7.49.21-5.17l-.06.8c-.06.62-.12,1.24-.2,1.85-.16,1.23-.35,2.46-.58,3.69-.48,2.64-1.1,5.25-1.8,7.84a175.64,175.64,0,0,1-5.95,17.68,414.68,414.68,0,0,1-17.95,39C435.41,329.87,428.7,342,421.8,354c-7.39,12.84-14.79,25.76-23.5,37.77-3.15,4.35-6.47,8.81-10.54,12.35-1.4,1.21-4.28,3.73-6.27,2.31a4.14,4.14,0,0,1-1.35-2.7c0-.14,0-.29-.06-.43a2,2,0,0,1,0-.23c0-.16-.3,7.07-.3,7.09.07-.39.11-.77.21-1.16a15.9,15.9,0,0,1,.85-2.49c2-4.77,5.33-9.05,8.58-13,10.24-12.62,22.49-23.74,35.17-33.85a198.32,198.32,0,0,1,22.61-16c5.59-3.28,12.27-6.77,19-6.52a10.1,10.1,0,0,1,9.14,5.89,18.28,18.28,0,0,1,1.5,6.26c.05.59.07,1.19.08,1.78,0,3.09.52-8.1.16-4.22-.13,1.37-.33,2.73-.58,4.07-1.41,7.48-4.29,14.72-7.29,21.69s-6.42,13.89-10.06,20.62c-1.53,2.83-3.09,5.65-4.75,8.4a5.06,5.06,0,0,0-.08,1.19c-.05,1-.09,1.91-.13,2.86s-.08,1.91-.11,2.86a3.63,3.63,0,0,1,0,1.19,234.15,234.15,0,0,0,16-31.85c2.82-6.84,5.52-14,6.51-21.34a96.33,96.33,0,0,0,.69-13.15,22.44,22.44,0,0,0-1-6.86,10.24,10.24,0,0,0-8.53-7.39c-6.51-.83-13.3,2.54-18.78,5.62-8.37,4.7-16.16,10.6-23.67,16.56-7.16,5.68-14.06,11.71-20.62,18.07a181.45,181.45,0,0,0-15.73,17.07c-3.15,4-6.48,8.32-8.2,13.16-1.19,3.35-.92,7.17-1,10.67a6.15,6.15,0,0,0,.9,3.75c1.56,2.11,4.41.16,5.9-1,4.13-3.23,7.42-7.64,10.52-11.82,5.3-7.18,10.08-14.74,14.67-22.39q10.41-17.31,20.12-35c7.26-13.23,14.23-26.63,20.48-40.36,5.54-12.15,10.79-24.67,13.88-37.7a97.59,97.59,0,0,0,2.2-19.81c.12-4.2,0-8.81-2.27-12.5-5.18-8.39-17.59-4.26-24.73-1.37-14.06,5.7-26.91,14.55-39.1,23.47-6.8,5-13.45,10.18-20,15.54a255.74,255.74,0,0,0-20.14,17.93c-4.29,4.35-8.58,9-11.54,14.41a19,19,0,0,0-2,5,14.41,14.41,0,0,0-.29,2.26,77.49,77.49,0,0,0-.29,8.2c.26,5.54,6.67,6.24,11,5.56a47.27,47.27,0,0,0,13.27-4.68,104,104,0,0,0,17.58-11.26,153.11,153.11,0,0,0,19.81-18.63,105.53,105.53,0,0,0,14.91-20.48C431.49,256.33,439,236,442.37,211c1.43-10.41.5-10.38,1-20.88.15-3.25-1.34-1.58-1.38-.77-.07,1.65-.16,3.32-.17,5Z" transform="translate(-20.2 -10.54)" style="fill:#F4C300"></path><path d="M357.79,182.34s-.72-5.15-5-6-13.42,1.78-13.33,7.21,3.22,4.64,3.22,4.64Z" transform="translate(-20.2 -10.54)" style="fill:#263238;stroke:#263238;stroke-linejoin:round"></path><path d="M348.57,184s-7,4.37-7.65,8.69a40.52,40.52,0,0,0,.21,9.94s-3.15-2.62-3.59.62.2,6.37,1.71,7.37a9.75,9.75,0,0,0,3.67,1.23s4.76,8.89,7.79,10.72,7.65,2.49,9.76.25a32.77,32.77,0,0,0,5.7-10.16c1.23-3.52,1.89-12.19,1.83-18.24s-7.11-11.93-10.21-12.06S350.17,182.8,348.57,184Z" transform="translate(-20.2 -10.54)" style="fill:#fff;stroke:#263238;stroke-linejoin:round"></path><path d="M357.79,182.34c-3.1-.13-7.62.46-9.22,1.64,0,0-7,4.37-7.65,8.69a40.52,40.52,0,0,0,.21,9.94s.88,1.27,1.58-.56-.16-3.89.28-6.82.24-6,4.52-8,7-.79,9.81-.83,3.44-.64,5,0,4.15,4.67,5.15,6.73c.18.37.38.8.57,1.26C367.94,188.34,360.89,182.47,357.79,182.34Z" transform="translate(-20.2 -10.54)" style="fill:#263238;stroke:#263238;stroke-linejoin:round"></path><path d="M367.68,202.15s2.68-1,2.41,2-3.37,6.38-3.37,6.38Z" transform="translate(-20.2 -10.54)" style="fill:none;stroke:#263238;stroke-linejoin:round"></path><path d="M347.27,204.25s3.18,1.84,5.73.4" transform="translate(-20.2 -10.54)" style="fill:none;stroke:#263238;stroke-linejoin:round"></path><path d="M354.12,199.88s-4.08-2.49-6.71,1" transform="translate(-20.2 -10.54)" style="fill:none;stroke:#263238;stroke-linejoin:round"></path><path d="M360.14,204.47a3.75,3.75,0,0,0,5-.1" transform="translate(-20.2 -10.54)" style="fill:none;stroke:#263238;stroke-linejoin:round"></path><path d="M359.53,200.41s3.69-2.79,6,.25" transform="translate(-20.2 -10.54)" style="fill:none;stroke:#263238;stroke-linejoin:round"></path><path d="M355.19,211.72a3.14,3.14,0,0,0,3.11-.18" transform="translate(-20.2 -10.54)" style="fill:none;stroke:#263238;stroke-linejoin:round"></path><path d="M352.49,213.16s3.75,3.1,9,.21" transform="translate(-20.2 -10.54)" style="fill:none;stroke:#263238;stroke-linejoin:round"></path></g><g id="freepik--character-2--inject-361"><path d="M325.32,137.78l-.3-1.21c-.31-1.21-4.24-2.43-9.09-.61s-13.31,8.17-15.43,10S285.66,152,273,154.12s-26,4.85-26,4.85H226.64c-8.18,0-21.19,3.33-21.19,3.33-12.72.6-31.48,6.35-31.48,6.35s-18.77-5.75-31.48-6.35c0,0-13-3.33-21.19-3.33H101s-13.32-2.73-26-4.85S49.56,147.77,47.44,146,36.84,137.78,32,136s-8.78-.6-9.08.61l-.31,1.21s-2.42,3.63-1.81,5.14a17.3,17.3,0,0,0,2.42,3.64,4.46,4.46,0,0,0,2.12,3.32c2.12,1.52,6.05,4.24,7,6.36s4.24,7.27,7.57,7.87S42.29,159.87,48,162s16.65,10.6,32.69,14.53,26,6.36,27.85,7.27,33.3,14.53,33.3,14.53,15.14,8.17,21.19,8.78a54.73,54.73,0,0,0,10.9,0,54.61,54.61,0,0,0,10.89,0c6.06-.61,21.19-8.78,21.19-8.78s31.48-13.62,33.3-14.53,11.81-3.33,27.85-7.27,26.94-12.41,32.69-14.53,4.84,2.73,8.17,2.12,6.66-5.75,7.57-7.87,4.85-4.84,7-6.36a4.46,4.46,0,0,0,2.12-3.32,17.3,17.3,0,0,0,2.42-3.64C327.74,141.41,325.32,137.78,325.32,137.78Z" transform="translate(-20.2 -10.54)" style="fill:#F4C300;stroke:#263238;stroke-linejoin:round"></path><path d="M111.94,177.72c1.75.82,3.31,1.49,4.57,2" transform="translate(-20.2 -10.54)" style="fill:none;stroke:#263238;stroke-linecap:round;stroke-linejoin:round"></path><path d="M73.29,156.75s20.54,12,34.38,18.89" transform="translate(-20.2 -10.54)" style="fill:none;stroke:#263238;stroke-linecap:round;stroke-linejoin:round"></path><path d="M95.26,166.17s15.21,6.52,26.8,10.38" transform="translate(-20.2 -10.54)" style="fill:none;stroke:#263238;stroke-linecap:round;stroke-linejoin:round"></path><path d="M39.75,155.73c-2.79-.93-5.63-.12-7.44.52.91,2.13,4.23,7.26,7.56,7.86,2.24.41,2.57-1.64,4.29-2.39A5.91,5.91,0,0,0,39.75,155.73Z" transform="translate(-20.2 -10.54)" style="fill:#fff;stroke:#263238;stroke-linejoin:round"></path><path d="M22.92,136.57l-.31,1.21s-2.42,3.63-1.81,5.14a17.3,17.3,0,0,0,2.42,3.64,4.46,4.46,0,0,0,2.12,3.32,45.74,45.74,0,0,1,5.3,4.19c2.28-1.48,6.86-4.5,8.56-6.21a17.41,17.41,0,0,0,3.48-5.55C39.28,139.88,35,137.07,32,136,27.16,134.14,23.22,135.36,22.92,136.57Z" transform="translate(-20.2 -10.54)" style="fill:#fff;stroke:#263238;stroke-linejoin:round"></path><path d="M22.61,137.78a3.07,3.07,0,0,0,1.67,2.08c1.36.54,3.8-.68,3.8-.68s-3,2.44-3.66,4.61" transform="translate(-20.2 -10.54)" style="fill:none;stroke:#263238;stroke-linecap:round;stroke-linejoin:round"></path><path d="M235.3,177.94c-1.56.72-2.94,1.32-4.08,1.75" transform="translate(-20.2 -10.54)" style="fill:none;stroke:#263238;stroke-linecap:round;stroke-linejoin:round"></path><path d="M274.43,156.75s-20.75,12.08-34.59,19" transform="translate(-20.2 -10.54)" style="fill:none;stroke:#263238;stroke-linecap:round;stroke-linejoin:round"></path><path d="M252.46,166.17s-15.21,6.52-26.8,10.38" transform="translate(-20.2 -10.54)" style="fill:none;stroke:#263238;stroke-linecap:round;stroke-linejoin:round"></path><path d="M308,155.73c2.79-.93,5.63-.12,7.44.52-.92,2.13-4.24,7.26-7.57,7.86-2.24.41-2.56-1.64-4.29-2.39A5.93,5.93,0,0,1,308,155.73Z" transform="translate(-20.2 -10.54)" style="fill:#fff;stroke:#263238;stroke-linejoin:round"></path><path d="M324.81,136.57l.3,1.21s2.42,3.63,1.82,5.14a17.61,17.61,0,0,1-2.43,3.64,4.46,4.46,0,0,1-2.12,3.32,46.6,46.6,0,0,0-5.3,4.19c-2.28-1.48-6.86-4.5-8.56-6.21a17.51,17.51,0,0,1-3.47-5.55c3.39-2.43,7.71-5.24,10.68-6.35C320.57,134.14,324.5,135.36,324.81,136.57Z" transform="translate(-20.2 -10.54)" style="fill:#fff;stroke:#263238;stroke-linejoin:round"></path><path d="M325.11,137.78a3,3,0,0,1-1.67,2.08c-1.36.54-3.8-.68-3.8-.68s3,2.44,3.66,4.61" transform="translate(-20.2 -10.54)" style="fill:none;stroke:#263238;stroke-linecap:round;stroke-linejoin:round"></path><path d="M134.47,64.86a9.68,9.68,0,0,1-3.5-.4c-.74-.44-1.43-.86,2.64-10.66l0-.06a1.56,1.56,0,0,1,1-.84,3.05,3.05,0,0,1,2.24.61l.2.14.12.21c4.27,8.24,3.69,9.25,3.44,9.69a2.26,2.26,0,0,1-1.45.9A23.07,23.07,0,0,1,134.47,64.86Zm-2-2.06a24.18,24.18,0,0,0,6.34-.31A46.45,46.45,0,0,0,135.57,55l-.26-.12A71.91,71.91,0,0,0,132.47,62.8Zm6.38,0Zm.22-.41Z" transform="translate(-20.2 -10.54)" style="fill:#fff;stroke:#263238;stroke-linejoin:round"></path><path d="M134.33,57a10,10,0,0,1-3.5-.4c-.74-.45-1.43-.86,2.64-10.66l0-.07a1.54,1.54,0,0,1,1-.83,3.07,3.07,0,0,1,2.24.6l.2.14.11.22c4.27,8.24,3.69,9.25,3.44,9.68a2.22,2.22,0,0,1-1.45.9A22.29,22.29,0,0,1,134.33,57Zm-2-2.07a24.58,24.58,0,0,0,6.33-.3,46.46,46.46,0,0,0-3.24-7.47l-.26-.12A70.77,70.77,0,0,0,132.34,54.9Zm6.37,0Zm.23-.4Z" transform="translate(-20.2 -10.54)" style="fill:#fff;stroke:#263238;stroke-linejoin:round"></path><path d="M133.61,53.8l-2.1,5.13,2.07.53s1.65-5,1.7-5.19" transform="translate(-20.2 -10.54)" style="fill:#fff"></path><line x1="115.2" y1="43.32" x2="113.37" y2="48.92" style="fill:none;stroke:#263238;stroke-linejoin:round"></line><line x1="113.43" y1="43.2" x2="111.13" y2="49.15" style="fill:none;stroke:#263238;stroke-linejoin:round"></line><polyline points="112.53 0.02 113.77 38.94 116.27 38.66 115.3 0.15" style="fill:#fff;stroke:#263238;stroke-linejoin:round"></polyline><polygon points="123.77 184.74 120.82 184.73 114.09 52.89 117.03 52.91 123.77 184.74" style="fill:#263238;stroke:#263238;stroke-linejoin:round"></polygon><path d="M160.19,100l.68,10.46s-13.88,6.51-14.39,6.85,0,7.54,1,13.71,3.77,32,4.46,33.93,20.56,13.88,22.79,14.22,17-13,17-13,7-47.47,6.51-48.67-16.62-7.54-17.65-8-.52-10.8-.52-10.8Z" transform="translate(-20.2 -10.54)" style="fill:#fff;stroke:#263238;stroke-linejoin:round"></path><path d="M161.21,101.17l.69,9.94,10.62-2.23S162.24,102,161.21,101.17Z" transform="translate(-20.2 -10.54)" style="fill:#263238;stroke:#263238;stroke-linejoin:round"></path><path d="M181.84,109.94c-1,5.75-2.92,16.67-3.66,20-1,4.63-5.48,9.94-5.48,9.94s-7-8.22-7.54-10.11-4.29-19.36-4.29-19.36-13.88,6.51-14.39,6.85,0,7.54,1,13.71,3.77,32,4.46,33.93,20.56,13.88,22.79,14.22,17-13,17-13,7-47.47,6.51-48.67C197.79,116.42,185.85,111.6,181.84,109.94Z" transform="translate(-20.2 -10.54)" style="fill:#F4C300;stroke:#263238;stroke-linejoin:round"></path><path d="M179.6,164.48a43.14,43.14,0,0,0,6-.89" transform="translate(-20.2 -10.54)" style="fill:none;stroke:#263238;stroke-linecap:round;stroke-linejoin:round"></path><path d="M157.92,161.84a59,59,0,0,0,16.79,2.78" transform="translate(-20.2 -10.54)" style="fill:none;stroke:#263238;stroke-linecap:round;stroke-linejoin:round"></path><path d="M190.56,152.75s-3.95,6.29-18.29,7.69" transform="translate(-20.2 -10.54)" style="fill:none;stroke:#263238;stroke-linecap:round;stroke-linejoin:round"></path><path d="M176.81,109.4s-4.29,13.54-4.63,14" transform="translate(-20.2 -10.54)" style="fill:none;stroke:#263238;stroke-linejoin:round"></path><polyline points="144.27 112.57 151.29 114.28 156.44 112.57" style="fill:none;stroke:#263238;stroke-linejoin:round"></polyline><path d="M148.36,213.07a59,59,0,0,1-4.8,6.34c-1.71,1.72-5,3.6-4.45,5.32s2.91,6,3.77,6.17,5.82-2.75,5.82-2.75c1.38-1.71,3.6-4.28,4.63-5.48s1.37-5.65,1.37-7.54S149.39,211,148.36,213.07Z" transform="translate(-20.2 -10.54)" style="fill:#fff;stroke:#263238;stroke-linejoin:round"></path><path d="M146.79,229.3c-11,0-20-8.62-20-19.22s9-19.23,20-19.23,20,8.63,20,19.23S157.83,229.3,146.79,229.3Zm0-34.45c-8.83,0-16,6.83-16,15.23s7.19,15.22,16,15.22,16-6.83,16-15.22S155.63,194.85,146.79,194.85Z" transform="translate(-20.2 -10.54)" style="fill:#fff;stroke:#263238;stroke-linejoin:round"></path><path d="M150.08,115.4s-9.6,1.71-13,7.19-3.94,9.26-2.74,13.2,2.23,7.71,2.23,7.71.17,10.28.85,13,2.75,8.4,3.43,10.63.52,11.48.86,13.88,4.45,17.48,5.14,19.53.51,14.57.51,14.57a4.12,4.12,0,0,0,2.23,1c1.37.17,5.83-.34,6.34-.86s.17-14.22.52-15.25,2.05-14.22,1-20.91S154,162.35,154,161.49a50.94,50.94,0,0,0,.85-8.74c0-5.31-.51-11.31-.51-11.31s4.28-5.48,1.37-13.88S152.13,115.91,150.08,115.4Z" transform="translate(-20.2 -10.54)" style="fill:#fff;stroke:#263238;stroke-linejoin:round"></path><path d="M137.22,140.93s4.12,5.83,5.66,6.17,6.17-5.66,6.17-5.66" transform="translate(-20.2 -10.54)" style="fill:none;stroke:#263238;stroke-miterlimit:10"></path><path d="M146,160.46s.69,7,3.26,7,4.11-3.77,4.11-3.77" transform="translate(-20.2 -10.54)" style="fill:none;stroke:#263238;stroke-miterlimit:10"></path><path d="M145.11,168.69s.34,8.57,1.71,11.48a33.79,33.79,0,0,0,4.63,6.51" transform="translate(-20.2 -10.54)" style="fill:none;stroke:#263238;stroke-miterlimit:10"></path><path d="M156.25,204a19.57,19.57,0,0,1-9.06-.28c.24,4.38.14,11.44.14,11.44a4.12,4.12,0,0,0,2.23,1c1.37.17,5.83-.34,6.34-.86C156.25,215,156.2,208.39,156.25,204Z" transform="translate(-20.2 -10.54)" style="fill:#fff;stroke:#263238;stroke-linejoin:round"></path><path d="M150.25,220.1s-3.09,3.77-3.09,4.28,1.2,4,1.2,5.49,1.72,2,2.23.68a28.94,28.94,0,0,0,.86-4.79s2.4.17,3.77-3.43a14.06,14.06,0,0,0,.68-7l-2.74.86" transform="translate(-20.2 -10.54)" style="fill:#fff;stroke:#263238;stroke-linejoin:round"></path><path d="M211,64.86a9.68,9.68,0,0,0,3.5-.4c.74-.44,1.44-.86-2.64-10.66l0-.06a1.6,1.6,0,0,0-1-.84,3.05,3.05,0,0,0-2.24.61l-.2.14-.12.21c-4.26,8.24-3.69,9.25-3.44,9.69a2.26,2.26,0,0,0,1.45.9A23.07,23.07,0,0,0,211,64.86Zm2-2.06a24.18,24.18,0,0,1-6.34-.31A46.45,46.45,0,0,1,209.86,55l.26-.12A71.91,71.91,0,0,1,213,62.8Zm-6.37,0Zm-.23-.41Z" transform="translate(-20.2 -10.54)" style="fill:#fff;stroke:#263238;stroke-linejoin:round"></path><path d="M211.1,57a9.91,9.91,0,0,0,3.5-.4c.74-.45,1.43-.86-2.64-10.66l0-.07a1.54,1.54,0,0,0-1-.83,3,3,0,0,0-2.24.6l-.21.14-.11.22c-4.27,8.24-3.69,9.25-3.44,9.68a2.22,2.22,0,0,0,1.45.9A22.29,22.29,0,0,0,211.1,57Zm2-2.07a24.58,24.58,0,0,1-6.33-.3A46.46,46.46,0,0,1,210,47.13l.26-.12A70.77,70.77,0,0,1,213.09,54.9Zm-6.37,0Zm-.22-.4Z" transform="translate(-20.2 -10.54)" style="fill:#fff;stroke:#263238;stroke-linejoin:round"></path><path d="M211.85,53.8l2.1,5.13-2.07.53-1.71-5.19" transform="translate(-20.2 -10.54)" style="fill:#fff"></path><line x1="189.86" y1="43.32" x2="191.68" y2="48.92" style="fill:none;stroke:#263238;stroke-linejoin:round"></line><line x1="191.62" y1="43.2" x2="193.92" y2="49.15" style="fill:none;stroke:#263238;stroke-linejoin:round"></line><polyline points="192.5 0.02 191.25 38.94 188.76 38.66 189.73 0.15" style="fill:#fff;stroke:#263238;stroke-linejoin:round"></polyline><polygon points="181.26 184.74 184.21 184.73 190.94 52.89 187.99 52.91 181.26 184.74" style="fill:#263238;stroke:#263238;stroke-linejoin:round"></polygon><path d="M197.07,213.07a59,59,0,0,0,4.8,6.34c1.71,1.72,5,3.6,4.45,5.32s-2.91,6-3.77,6.17-5.82-2.75-5.82-2.75c-1.37-1.71-3.6-4.28-4.63-5.48s-1.37-5.65-1.37-7.54S196,211,197.07,213.07Z" transform="translate(-20.2 -10.54)" style="fill:#fff;stroke:#263238;stroke-linejoin:round"></path><path d="M198.64,229.3c11,0,20-8.62,20-19.22s-9-19.23-20-19.23-20,8.63-20,19.23S187.6,229.3,198.64,229.3Zm0-34.45c8.83,0,16,6.83,16,15.23s-7.19,15.22-16,15.22-16-6.83-16-15.22S189.81,194.85,198.64,194.85Z" transform="translate(-20.2 -10.54)" style="fill:#fff;stroke:#263238;stroke-linejoin:round"></path><path d="M195.36,115.4s9.59,1.71,13,7.19,3.94,9.26,2.74,13.2-2.23,7.71-2.23,7.71-.17,10.28-.85,13-2.74,8.4-3.43,10.63-.51,11.48-.86,13.88-4.45,17.48-5.14,19.53-.51,14.57-.51,14.57a4.12,4.12,0,0,1-2.23,1c-1.37.17-5.83-.34-6.34-.86s-.17-14.22-.51-15.25-2.06-14.22-1-20.91,3.42-16.79,3.42-17.65a50.94,50.94,0,0,1-.85-8.74c0-5.31.51-11.31.51-11.31s-4.28-5.48-1.37-13.88S193.3,115.91,195.36,115.4Z" transform="translate(-20.2 -10.54)" style="fill:#fff;stroke:#263238;stroke-linejoin:round"></path><path d="M208.21,140.93s-4.11,5.83-5.66,6.17-6.17-5.66-6.17-5.66" transform="translate(-20.2 -10.54)" style="fill:none;stroke:#263238;stroke-miterlimit:10"></path><path d="M199.47,160.46s-.69,7-3.26,7-4.11-3.77-4.11-3.77" transform="translate(-20.2 -10.54)" style="fill:none;stroke:#263238;stroke-miterlimit:10"></path><path d="M200.33,168.69s-.35,8.57-1.72,11.48a33.79,33.79,0,0,1-4.63,6.51" transform="translate(-20.2 -10.54)" style="fill:none;stroke:#263238;stroke-miterlimit:10"></path><path d="M189.18,204a19.57,19.57,0,0,0,9.06-.28c-.24,4.38-.14,11.44-.14,11.44a4.12,4.12,0,0,1-2.23,1c-1.37.17-5.83-.34-6.34-.86C189.18,215,189.23,208.39,189.18,204Z" transform="translate(-20.2 -10.54)" style="fill:#fff;stroke:#263238;stroke-linejoin:round"></path><path d="M195.18,220.1s3.09,3.77,3.09,4.28-1.2,4-1.2,5.49-1.71,2-2.23.68a28.94,28.94,0,0,1-.86-4.79s-2.39.17-3.77-3.43a14.06,14.06,0,0,1-.68-7l2.74.86" transform="translate(-20.2 -10.54)" style="fill:#fff;stroke:#263238;stroke-linejoin:round"></path><path d="M158.55,82.32l-.25,12A38.78,38.78,0,0,1,155,90.2c-.51-1,.31-2.74-.64-6.17s-.43-7.71,2.71-9.59,3.15-.52,5.44-2.4,1.76-4.63,8.61-4.63,11.58,3.43,11.12,5.83-2.93,1.54-2.37,2.57,4.8,1.37,4.85,3.77-2.3,12.68-2.3,12.68-1.2-.51-1.37-3.26.93-8-.25-9.59-5.15-2.74-7.1-2.23-2.56,1.37-4.58,1-4.91-1.89-7.15-.34A11.42,11.42,0,0,0,158.55,82.32Z" transform="translate(-20.2 -10.54)" style="fill:#263238;stroke:#263238;stroke-linejoin:round"></path><path d="M158.3,94.32s-3.08-4.63-4.45-1.37,0,5.31,1.19,5.82a8.55,8.55,0,0,0,3.26.35s4,5.71,7.2,7.88a10.61,10.61,0,0,0,13-1.2c1.55-1.55,2.92-7.2,2.92-7.2s5.31-.34,4.79-5-3.77-1.37-3.77-1.37.25-9.94,0-12c0,0,0,.35-1.29-2.05s-4.81-2.74-8.32-3.43-9.74-.51-13.34,1.54-2.74,8.06-2.74,8.06Z" transform="translate(-20.2 -10.54)" style="fill:#fff;stroke:#263238;stroke-linejoin:round"></path><polyline points="149.24 81.38 151.29 80.52 150.61 75.21" style="fill:none;stroke:#263238;stroke-linejoin:round"></polyline><path d="M167.55,95.69s4.29-.52,5.83.34" transform="translate(-20.2 -10.54)" style="fill:none;stroke:#263238;stroke-linejoin:round"></path><path d="M161.21,85.06a7.78,7.78,0,0,1,5.49-.68" transform="translate(-20.2 -10.54)" style="fill:none;stroke:#263238;stroke-linejoin:round"></path><path d="M172.52,84.38a5.39,5.39,0,0,1,5.32.51" transform="translate(-20.2 -10.54)" style="fill:none;stroke:#263238;stroke-linejoin:round"></path><path d="M165.67,87a1,1,0,1,1-.94-1.2A1.1,1.1,0,0,1,165.67,87Z" transform="translate(-20.2 -10.54)" style="fill:#263238"></path><path d="M176.21,87.12a1,1,0,1,1-.94-1.2A1.1,1.1,0,0,1,176.21,87.12Z" transform="translate(-20.2 -10.54)" style="fill:#263238"></path></g><g id="freepik--character-1--inject-361"><path d="M142,384.71s13.15,4.71,16.8,5.39,13,10.54,9.17,17.13-11.57,6.92-15.39,11.82-3.79,8.29-3.79,8.29l-18,15.25s-16.29-3-26.48-2.86-19.37,3.37-24.93,5.62a59.52,59.52,0,0,1-16.22,3.33c-2.18,0-9.28-5.72-11.46-5a42.09,42.09,0,0,0-6.51,3.71,23.5,23.5,0,0,0-6.81-2.11c-2.92-.21-7.52.57-8.94,3.26s1.53,6.77,5.41,7.22a121.48,121.48,0,0,0,15.79,1.27c6.07-.06,36.87-.9,40-1.17s28.43,3.8,36.19,3.23a169.82,169.82,0,0,0,17-2.37l17.15-7s-6.73,5.9-5,7.09,11.65.11,13.83-.15,43.92.23,57.52,1.78,22.6,2.66,25.73.44,7.49-2.76,8.43-5.44,1.38-7.05-.1-9.22-4.42-4.8-22.73-14.3-38.71-11.45-38.71-11.45a35.4,35.4,0,0,0,.13-9.95c-.77-4.36-1.06-8.73-1.06-8.73s-3.38-19.85-6.57-23.21-8.81-6.7-9.79-7.42-1.25-3.38-5.43-8.18-11.24-6.67-13.18-7.14-22.71,2.41-27.73,8.54S137.61,382.34,142,384.71Z" transform="translate(-20.2 -10.54)" style="fill:#fff;stroke:#263238;stroke-linejoin:round"></path><path d="M167.74,392.94a10.69,10.69,0,0,1,1.65,5.09" transform="translate(-20.2 -10.54)" style="fill:none;stroke:#263238;stroke-linejoin:round"></path><path d="M142.48,378.16s2,5.18,10.16,6.39a25,25,0,0,1,12.4,5.28" transform="translate(-20.2 -10.54)" style="fill:none;stroke:#263238;stroke-linejoin:round"></path><path d="M182.59,369.21,168,359l4.19-3.3S182.38,363,182.59,369.21Z" transform="translate(-20.2 -10.54)" style="fill:#c2c2c2;stroke:#263238;stroke-linejoin:round"></path><path d="M200,408.57c-.77-4.36-1.06-8.73-1.06-8.73s-2.16-12.64-4.65-19.45c-.16,3.56-.92,13.22-4.6,17.37-4.55,5.15-19.5,13.33-20.73,12.37a6.12,6.12,0,0,1-1.3-2.43c-3.91,6.13-11.36,6.58-15.09,11.35s-3.79,8.29-3.79,8.29,4.46,8.44,13.22,10.53,22.31-1.22,28-9.05,9.83-10.3,9.83-10.3A35.4,35.4,0,0,0,200,408.57Z" transform="translate(-20.2 -10.54)" style="fill:#c2c2c2;stroke:#263238;stroke-linejoin:round"></path><path d="M163.92,413.58s-6.69,9.54-4.88,19.47" transform="translate(-20.2 -10.54)" style="fill:none;stroke:#263238;stroke-linejoin:round"></path><path d="M179.6,417.51a19.26,19.26,0,0,0-9,5.95c-5.74,7.34-2.53,12.16-2.53,12.16" transform="translate(-20.2 -10.54)" style="fill:none;stroke:#263238;stroke-linejoin:round"></path><path d="M188.69,415.73a32,32,0,0,0-4.71.6" transform="translate(-20.2 -10.54)" style="fill:none;stroke:#263238;stroke-linejoin:round"></path><path d="M111.5,375.08s-12.66,2.29-15.43,4.68S75.4,396.12,72.63,397.87,63,401.42,61.5,402.29s-3.84,2.41-3.84,2.41a66.53,66.53,0,0,0-5.54,5c-1.27,1.52.44.64,1.94.41s3.87-.69,4.51-.7,5.37-.06,6.88-.29a39.53,39.53,0,0,0,3.85-.91l2.81.83s1.32,3.21,2.2,4.92,3.89,1.89,3.45.18-1.76-3-1.56-4.71,2.1-3.9,2.3-5.4a13.76,13.76,0,0,1,.83-3s31.68-12.18,35.53-13.94,4-8,2-11S111.5,375.08,111.5,375.08Z" transform="translate(-20.2 -10.54)" style="fill:#fff;stroke:#263238;stroke-linejoin:round"></path><path d="M56,406.48s-.38,1.75,1.89.38,5.33-3.41,5.33-3.41,3.78,2,7.25,1" transform="translate(-20.2 -10.54)" style="fill:none;stroke:#263238;stroke-linejoin:round"></path><path d="M143.62,402.66a6.45,6.45,0,1,1-6.52-6.38A6.44,6.44,0,0,1,143.62,402.66Z" transform="translate(-20.2 -10.54)" style="fill:#263238;stroke:#263238;stroke-linejoin:round"></path><path d="M134.77,360.63l-10.69,5.71s-8,.08-9.88.32-2.79.46-2.77,2.61.07,5.81.07,5.81-3.19,3-2.11,3.46a10.13,10.13,0,0,1,2.6,2.12s.05,4.94.92,5.79,4.62,9.19,8.09,11.52,9.49,2.9,13.77,1.14,5.11-4.58,6.8-6.53,2.3-6,2.3-6a10,10,0,0,0-1.56-5.36,19.92,19.92,0,0,0-4.58-5.11,28.42,28.42,0,0,1-2.43-5.78C134,366.22,134.77,360.63,134.77,360.63Z" transform="translate(-20.2 -10.54)" style="fill:#fff;stroke:#263238;stroke-linejoin:round"></path><path d="M133.94,382.56c-1.92,1.74-5.15.71-5.83-2.3,0,0-.69-3.86-2-1.91s.67,2.14-1.66,5-7,4.81-7,7S121.62,396,121,398c3.46,2.33,9.49,2.9,13.77,1.14s5.11-4.58,6.8-6.53,2.3-6,2.3-6a10,10,0,0,0-1.56-5.36,19.92,19.92,0,0,0-4.58-5.11c-1.93-.19-5.38-.58-5.38-.58S135.85,380.82,133.94,382.56Z" transform="translate(-20.2 -10.54)" style="fill:#263238;stroke:#263238;stroke-linejoin:round"></path><path d="M115.05,385.35a4.19,4.19,0,0,0,3.63-2.4" transform="translate(-20.2 -10.54)" style="fill:none;stroke:#263238;stroke-linejoin:round"></path><path d="M116.08,381.15c0,.65-.32,1.19-.74,1.19s-.76-.52-.77-1.17.33-1.19.74-1.19S116.07,380.5,116.08,381.15Z" transform="translate(-20.2 -10.54)" style="fill:#263238"></path><path d="M136,372.44l1.33-1.62s-3-7.26-5.73-8.77l-3,1.66s4.53,1.45,7.4,8.73" transform="translate(-20.2 -10.54)" style="fill:#F4C300;stroke:#263238;stroke-linejoin:round"></path><line x1="103.88" y1="355.8" x2="109.49" y2="357.67" style="fill:none;stroke:#263238;stroke-linejoin:round"></line><path d="M223.5,458.09c-41.69.47-75.95-28.91-76.36-65.48S180.32,325.9,222,325.43s75.95,28.91,76.36,65.48S265.19,457.62,223.5,458.09Zm-1.45-129.66c-40,.45-72.3,29.22-71.91,64.15s33.29,63,73.33,62.51,72.29-29.23,71.9-64.15S262.08,328,222.05,328.43Z" transform="translate(-20.2 -10.54)" style="fill:#F4C300;stroke:#263238;stroke-linejoin:round"></path><path d="M149.74,370.51s1.87-2.55,3.13-3.2,7.12-3.66,11.75-4.56,13.83-7.32,13.83-7.32a50.48,50.48,0,0,0,5.68-1.33c4-1.1,37.58-13.49,37.58-13.49s9.25-2.85,11.76-4.56a27.25,27.25,0,0,0,5.21-5.54l-10.79-2.83-6.45,7s-36.63,5.05-41.68,6.16-10.48,5-11.11,5.18-9.88,2.43-11.78,2.66-10.74.55-14.93,2.91-7.17,9-7.17,9-1.86,8.38,3,15.44" transform="translate(-20.2 -10.54)" style="fill:#fff;stroke:#263238;stroke-linejoin:round"></path><path d="M211.48,344.36c5.82-2.12,10.23-3.75,10.23-3.75l1.33-.42c-.51-1.92-1.22-4.48-1.6-5.48,0,0-5.39.74-12.31,1.72Z" transform="translate(-20.2 -10.54)" style="fill:#F4C300;stroke:#263238;stroke-linejoin:round"></path><path d="M237.51,332.42s5-6.23,4.72-6.91-12-2.15-12.58-1.8-2.23,4.94-1.88,5.39S237.51,332.42,237.51,332.42Z" transform="translate(-20.2 -10.54)" style="fill:#fff;stroke:#263238;stroke-linejoin:round"></path><line x1="218.25" y1="313.99" x2="214.67" y2="320.88" style="fill:none;stroke:#263238;stroke-linejoin:round"></line><line x1="215.05" y1="313.45" x2="212.27" y2="320.34" style="fill:none;stroke:#263238;stroke-linejoin:round"></line><line x1="211.73" y1="313.6" x2="209.4" y2="319.57" style="fill:none;stroke:#263238;stroke-linejoin:round"></line><path d="M227.07,338.71s7.87-1.58,8.32-1.81,2.37-3.11,3.27-3.92,5.46-2,5.79-3.5-2.18-.77-3.55-.3a33.86,33.86,0,0,0-3.86,1.87s-6.62.08-8.1,1-2.36,3.45-2.58,3.91" transform="translate(-20.2 -10.54)" style="fill:#fff;stroke:#263238;stroke-linejoin:round"></path><path d="M251.64,447.05s-26.53-7.46-35-5.91-23.95,6.33-27.35,6.61-5.09.3-5.09.3-2-6-5.89-6.48-5.33,1.51-5.79,3-3.85,3-5.79,3.71a47.42,47.42,0,0,1-5.8,1.52s-6.73,5.9-5,7.09,11.65.11,13.83-.15,43.92.23,57.52,1.78l4.54.51,1.54-.1,7.06.66s9.74.77,10.71.46a24.83,24.83,0,0,0,3.29-1.69s5.25-.64,6.59-3.09,1.76-8.21,1.26-9.57a11.92,11.92,0,0,0-2.48-3.18" transform="translate(-20.2 -10.54)" style="fill:#fff;stroke:#263238;stroke-linejoin:round"></path><path d="M45.16,447.43s-3.07,2.8-2.41,4.41" transform="translate(-20.2 -10.54)" style="fill:none;stroke:#263238;stroke-linejoin:round"></path></g></svg>